<?xml version="1.0" standalone="no"?><!DOCTYPE svg PUBLIC "-//W3C//DTD SVG 1.1//EN" "http://www.w3.org/Graphics/SVG/1.1/DTD/svg11.dtd"><svg t="1631497612901" class="icon" viewBox="0 0 1024 1024" version="1.1" xmlns="http://www.w3.org/2000/svg" p-id="721" xmlns:xlink="http://www.w3.org/1999/xlink" width="200" height="200"><defs><style type="text/css"></style></defs><path d="M891.17025975 221.17590913c10.48576 0 22.13660445 13.59265185 22.13660444 31.71618765v506.03501037c0 18.12353581-11.78029827 31.71618765-22.39551209 31.71618765H133.0886479c-10.35630617 0-22.3955121-13.8515595-22.39551209-31.71618765V252.89209678c0-18.12353581 11.78029827-31.71618765 22.39551209-31.71618765h758.08161185m0-103.56306173H133.0886479c-69.25779753 0-125.95857383 60.84329876-125.95857382 135.27924938v506.03501037c0 74.17704297 56.7007763 135.27924939 125.95857382 135.27924938h757.8227042c69.25779753 0 125.95857383-60.84329876 125.95857382-135.27924938V252.89209678c0-74.43595061-56.57132247-135.27924939-125.69966617-135.27924938z" fill="#5E9EFC" p-id="722"></path><path d="M728.05843753 287.3268148c36.24707161 0 65.50363653 29.38601876 65.50363655 65.50363655 0 36.24707161-29.38601876 65.50363653-65.50363655 65.50363655s-65.50363653-29.38601876-65.50363655-65.50363655c0-36.24707161 29.38601876-65.50363653 65.50363655-65.50363655z m-486.74639012 411.14535506l131.26618074-279.23190517c7.76722963-16.57008987 31.32782617-16.57008987 39.0950558 0l131.26618074 279.23190517c6.73159902 14.23992098-3.62470717 30.81001086-19.54752789 30.81001087H260.85957531c-15.79336691 0-26.27912691-16.44063605-19.5475279-30.81001087z" fill="#5E9EFC" p-id="723"></path><path d="M486.62704987 704.8154074L590.96683457 483.06100147c6.2137837-13.07483653 24.85513482-13.07483653 31.06891852 0L726.37553778 704.8154074c5.30760691 11.3919368-2.97743803 24.46677333-15.53445926 24.46677333H502.16150914c-12.55702124 0-20.84206617-13.07483653-15.53445927-24.46677333z" fill="#5E9EFC" p-id="724"></path></svg>